<?xml version="1.0" encoding="utf-8"?>
<!-- Generator: Adobe Illustrator 15.0.0, SVG Export Plug-In . SVG Version: 6.00 Build 0)  -->
<!DOCTYPE svg PUBLIC "-//W3C//DTD SVG 1.1//EN" "http://www.w3.org/Graphics/SVG/1.1/DTD/svg11.dtd">
<svg version="1.1" id="Layer_1" xmlns="http://www.w3.org/2000/svg" xmlns:xlink="http://www.w3.org/1999/xlink" x="0px" y="0px"
	 width="150px" height="150px" viewBox="0 0 150 150" enable-background="new 0 0 150 150" xml:space="preserve" fill="white">
<g>
	<path fill-rule="evenodd" clip-rule="evenodd" d="M72.684,7.5c1.545,0,3.09,0,4.634,0c10.008,0.442,18.713,2.659,25.484,6.513
		c3.281,1.866,6.309,4.359,8.578,7.388c2.301,3.069,3.931,6.921,4.195,11.771c0,27.759,0,55.521,0,83.28
		c-0.729,9.875-6.234,15.596-12.961,19.473c-6.836,3.941-15.634,6.222-25.86,6.575c-1.189,0-2.379,0-3.569,0
		c-10.132-0.368-18.897-2.591-25.672-6.512c-6.679-3.865-12.204-9.381-13.087-19.035c0-28.093,0-56.191,0-84.282
		c0.129-2.221,0.718-4.492,1.503-6.449c2.258-5.626,6.595-9.612,11.458-12.335C54.224,10.059,62.904,7.93,72.684,7.5z M64.23,20.837
		c-2.845,0.593-5.46,1.364-7.826,2.442c-3.431,1.562-6.765,3.725-8.203,7.201c-0.526,1.271-0.688,2.597-0.688,4.446
		c0,13.312,0.062,26.941,0.062,41.075c0,11.524,0.125,24.242,0.125,35.816c0,1.705-0.072,3.427,0.064,5.073
		c0.242,2.937,1.879,4.894,3.818,6.448c1.965,1.577,4.41,2.687,6.763,3.507c5.261,1.836,11.409,2.505,18.097,2.505
		c6.058,0,12.456-1.207,17.219-3.318c2.474-1.097,4.583-2.313,6.198-4.07c0.82-0.891,1.568-1.926,2.004-3.132
		c0.453-1.247,0.439-2.799,0.439-4.695c0-25.719,0.188-51.3,0.188-76.893c0-1.75,0.103-3.438-0.188-4.947
		c-1.018-5.278-6.121-8.17-10.708-9.83c-4.821-1.744-11.548-2.936-17.971-2.63C70.254,19.996,67.158,20.227,64.23,20.837z"/>
</g>
</svg>