<?xml version="1.0" encoding="utf-8"?>
<!-- Generator: Adobe Illustrator 21.0.0, SVG Export Plug-In . SVG Version: 6.00 Build 0)  -->
<svg version="1.1" id="Layer_1" xmlns="http://www.w3.org/2000/svg" xmlns:xlink="http://www.w3.org/1999/xlink" x="0px" y="0px"
	 viewBox="0 0 150 150" style="enable-background:new 0 0 150 150;" xml:space="preserve">
<style type="text/css">
	.st0{fill:#0A665F;}
	.st1{fill:#FFFFFF;}
</style>
<rect class="st0" width="150" height="150"/>
<g>
	<path class="st1" d="M72.7,7.5c1.5,0,3.1,0,4.6,0c10,0.4,18.7,2.7,25.5,6.5c3.3,1.9,6.3,4.4,8.6,7.4c2.3,3.1,3.9,6.9,4.2,11.8
		c0,27.8,0,55.5,0,83.3c-0.7,9.9-6.2,15.6-13,19.5s-15.6,6.2-25.9,6.6c-1.2,0-2.4,0-3.6,0c-10.1-0.4-18.9-2.6-25.7-6.5
		c-6.7-3.9-12.2-9.4-13.1-19c0-28.1,0-56.2,0-84.3c0.1-2.2,0.7-4.5,1.5-6.4c2.3-5.6,6.6-9.6,11.5-12.3C54.2,10.1,62.9,7.9,72.7,7.5z
		 M64.2,20.8c-2.8,0.6-5.5,1.4-7.8,2.4c-3.4,1.6-6.8,3.7-8.2,7.2c-0.5,1.3-0.7,2.6-0.7,4.4c0,13.3,0.1,26.9,0.1,41.1
		c0,11.5,0.1,24.2,0.1,35.8c0,1.7-0.1,3.4,0.1,5.1c0.2,2.9,1.9,4.9,3.8,6.4c2,1.6,4.4,2.7,6.8,3.5c5.3,1.8,11.4,2.5,18.1,2.5
		c6.1,0,12.5-1.2,17.2-3.3c2.5-1.1,4.6-2.3,6.2-4.1c0.8-0.9,1.6-1.9,2-3.1c0.5-1.2,0.4-2.8,0.4-4.7c0-25.7,0.2-51.3,0.2-76.9
		c0-1.8,0.1-3.4-0.2-4.9c-1-5.3-6.1-8.2-10.7-9.8c-4.8-1.7-11.5-2.9-18-2.6C70.3,20,67.2,20.2,64.2,20.8z"/>
</g>
</svg>
